#!OML:ASF H:\Dans Jumps\Project 1\Capture day 1\Session 1\subject.ASF
:FULLY-SPECIFIED
:DEGREES
555
root 0.484141 17.7076 5.62154 6.06051 2.25549 -1.55455
lowerback -1.37349 -0.404934 -0.201265
upperback 1.6966 -0.583904 2.15643
thorax 2.53604 -0.316953 2.30774
lowerneck -15.5476 -0.287825 -2.56779
upperneck 7.92448 -0.0289218 1.50474
head 4.90149 0.00846135 0.881618
rclavicle -7.25564e-015 3.06128e-014
rhumerus -18.8614 -17.7491 -84.8793
rradius 19.9549
rwrist 38.0148
rhand -20.4481 -26.2529
rfingers 7.12502
rthumb 5.90717 -56.1505
lclavicle -7.25564e-015 3.06128e-014
lhumerus -14.4149 -9.92994 95.4806
lradius 20.2696
lwrist 6.00558
lhand -26.7773 -6.4247
lfingers 7.12502
lthumb -0.205019 23.5549
rfemur -14.7247 -1.67457 20.7314
rtibia 21.9672
rfoot -11.9863 -4.27898
rtoes 10.9206
lfemur -15.2049 4.40345 -18.1002
ltibia 20.2144
lfoot -9.70757 2.43665
ltoes -2.33757
556
root 0.485175 17.7073 5.62699 6.02749 2.21657 -1.56852
lowerback -1.39719 -0.41552 -0.193775
upperback 1.68454 -0.59832 2.15865
thorax 2.53752 -0.323975 2.30516
lowerneck -15.5295 -0.292267 -2.56697
upperneck 8.00187 -0.0392341 1.53295
head 4.92301 0.00502265 0.889631
rclavicle 1.11319e-014 -1.63003e-014
rhumerus -18.9913 -17.8698 -84.7934
rradius 19.9
rwrist 38.147
rhand -20.4466 -26.226
rfingers 7.12502
rthumb 5.90866 -56.1237
lclavicle 1.11319e-014 -1.63003e-014
lhumerus -14.5153 -10.0936 95.626
lradius 20.3195
lwrist 6.14245
lhand -26.764 -6.39879
lfingers 7.12502
lthumb -0.192172 23.5809
rfemur -14.6573 -1.64573 20.7417
rtibia 21.9372
rfoot -11.9934 -4.27426
rtoes 10.9363
lfemur -15.1405 4.43132 -18.0835
ltibia 20.2109
lfoot -9.72921 2.45614
ltoes -2.36104
557
root 0.485964 17.7069 5.63231 5.99609 2.17341 -1.58468
lowerback -1.41703 -0.425139 -0.188936
upperback 1.66894 -0.611311 2.16228
thorax 2.53317 -0.330297 2.30561
lowerneck -15.5023 -0.294811 -2.56384
upperneck 8.07458 -0.047351 1.55795
head 4.94156 0.00251033 0.896428
rclavicle 5.46658e-015 -1.11319e-014
rhumerus -19.1329 -17.9769 -84.7025
rradius 19.8481
rwrist 38.2651
rhand -20.4543 -26.203
rfingers 7.12502
rthumb 5.90119 -56.1008
lclavicle 5.46658e-015 -1.11319e-014
lhumerus -14.6339 -10.2292 95.769
lradius 20.3485
lwrist 6.24145
lhand -26.7598 -6.38728
lfingers 7.12502
lthumb -0.18812 23.5924
rfemur -14.5922 -1.60625 20.7553
rtibia 21.9051
rfoot -11.9976 -4.27591
rtoes 10.9474
lfemur -15.0803 4.45844 -18.0631
ltibia 20.2108
lfoot -9.74936 2.48132
ltoes -2.38232
558
root 0.486821 17.7066 5.63805 5.96423 2.12711 -1.59964
lowerback -1.44167 -0.434057 -0.185856
upperback 1.65643 -0.623419 2.16552
thorax 2.53469 -0.336258 2.30664
lowerneck -15.4781 -0.296433 -2.55909
upperneck 8.14454 -0.0541658 1.58009
head 4.9597 0.000521458 0.902181
rclavicle -5.36719e-015 -4.37326e-015
rhumerus -19.2843 -18.0563 -84.6108
rradius 19.8129
rwrist 38.3601
rhand -20.4295 -26.2131
rfingers 7.12502
rthumb 5.92516 -56.1103
lclavicle -5.36719e-015 -4.37326e-015
lhumerus -14.7592 -10.3558 95.908
lradius 20.3566
lwrist 6.3186
lhand -26.7591 -6.37735
lfingers 7.12502
lthumb -0.187407 23.6023
rfemur -14.5242 -1.57153 20.7672
rtibia 21.8708
rfoot -12.0023 -4.26979
rtoes 10.9531
lfemur -15.0166 4.4857 -18.0444
ltibia 20.2089
lfoot -9.77199 2.50988
ltoes -2.39788
559
root 0.48806 17.7065 5.64454 5.93197 2.08089 -1.61103
lowerback -1.47465 -0.443601 -0.182213
upperback 1.64635 -0.636462 2.16668
thorax 2.5434 -0.342709 2.30511
lowerneck -15.4474 -0.296944 -2.54809
upperneck 8.2037 -0.0599905 1.59454
head 4.9734 -0.00128944 0.904561
rclavicle 4.02539e-015 1.07344e-014
rhumerus -19.4454 -18.1139 -84.5173
rradius 19.7903
rwrist 38.4371
rhand -20.4035 -26.2376
rfingers 7.12502
rthumb 5.95023 -56.134
lclavicle 4.02539e-015 1.07344e-014
lhumerus -14.8988 -10.4619 96.0422
lradius 20.353
lwrist 6.36037
lhand -26.7593 -6.37563
lfingers 7.12502
lthumb -0.187586 23.604
rfemur -14.451 -1.5567 20.7739
rtibia 21.8345
rfoot -12.011 -4.24563
rtoes 10.9486
lfemur -14.9461 4.5139 -18.0316
ltibia 20.203
lfoot -9.79661 2.53796
ltoes -2.41386
560
root 0.489757 17.7065 5.65149 5.90055 2.03492 -1.61715
lowerback -1.51456 -0.454454 -0.179238
upperback 1.63956 -0.651328 2.166
thorax 2.55947 -0.350124 2.30193
lowerneck -15.4221 -0.295895 -2.53495
upperneck 8.2592 -0.0635138 1.60475
head 4.98676 -0.00215958 0.905465
rclavicle -1.68967e-015 -1.70955e-014
rhumerus -19.6068 -18.1706 -84.4192
rradius 19.768
rwrist 38.5135
rhand -20.3955 -26.2496
rfingers 7.12502
rthumb 5.95802 -56.1458
lclavicle -1.68967e-015 -1.70955e-014
lhumerus -15.0497 -10.5419 96.1707
lradius 20.3397
lwrist 6.36103
lhand -26.7523 -6.36914
lfingers 7.12502
lthumb -0.180876 23.6105
rfemur -14.3754 -1.56421 20.773
rtibia 21.7973
rfoot -12.0234 -4.20208
rtoes 10.9302
lfemur -14.8704 4.54175 -18.0272
ltibia 20.1915
lfoot -9.82274 2.56555
ltoes -2.42639
561
root 0.491797 17.7065 5.65873 5.87026 1.98938 -1.6224
lowerback -1.56061 -0.466907 -0.174054
upperback 1.63669 -0.668524 2.16518
thorax 2.5831 -0.358723 2.29722
lowerneck -15.3991 -0.293692 -2.52048
upperneck 8.30537 -0.0652352 1.61147
head 4.99753 -0.00229894 0.905195
rclavicle -9.44227e-016 3.18055e-015
rhumerus -19.7592 -18.2526 -84.3121
rradius 19.7302
rwrist 38.6152
rhand -20.4054 -26.2426
rfingers 7.12502
rthumb 5.94841 -56.1391
lclavicle -9.44227e-016 3.18055e-015
lhumerus -15.2084 -10.6044 96.2934
lradius 20.3176
lwrist 6.32818
lhand -26.7293 -6.33538
lfingers 7.12502
lthumb -0.158618 23.6443
rfemur -14.3 -1.58849 20.7699
rtibia 21.7613
rfoot -12.0399 -4.14282
rtoes 10.9071
lfemur -14.7923 4.57038 -18.0256
ltibia 20.1771
lfoot -9.84994 2.59145
ltoes -2.43672
562
root 0.49398 17.7065 5.66586 5.84195 1.94159 -1.62205
lowerback -1.60736 -0.480276 -0.174099
upperback 1.63665 -0.686839 2.16341
thorax 2.61014 -0.368004 2.2944
lowerneck -15.3841 -0.290304 -2.50527
upperneck 8.3454 -0.0650521 1.61628
head 5.00764 -0.00155988 0.904361
rclavicle 9.44227e-015 1.19271e-015
rhumerus -19.9017 -18.3654 -84.1957
rradius 19.6771
rwrist 38.7438
rhand -20.4079 -26.2285
rfingers 7.12502
rthumb 5.94603 -56.1251
lclavicle 9.44227e-015 1.19271e-015
lhumerus -15.3718 -10.6551 96.4105
lradius 20.2833
lwrist 6.26757
lhand -26.6932 -6.28501
lfingers 7.12502
lthumb -0.1238 23.6947
rfemur -14.2283 -1.61849 20.76
rtibia 21.7276
rfoot -12.0574 -4.0762
rtoes 10.8876
lfemur -14.717 4.59661 -18.0309
ltibia 20.1654
lfoot -9.87665 2.62003
ltoes -2.44221
